<mxfile host="app.diagrams.net" modified="2022-05-10T13:41:00.438Z" agent="5.0 (Macintosh; Intel Mac OS X 10_15_7) AppleWebKit/537.36 (KHTML, like Gecko) Chrome/100.0.4896.127 Safari/537.36" etag="5GSVjTWl1zQMDHS_2Uow" version="18.0.2" type="github">
  <diagram id="01B64qG7wduLWQNyxhsN" name="第 1 页">
    <mxGraphModel dx="946" dy="614" grid="1" gridSize="10" guides="1" tooltips="1" connect="1" arrows="1" fold="1" page="1" pageScale="1" pageWidth="827" pageHeight="1169" math="0" shadow="0">
      <root>
        <mxCell id="0" />
        <mxCell id="1" parent="0" />
        <mxCell id="q8cP-F0geSqe3ToupgCK-56" style="edgeStyle=orthogonalEdgeStyle;rounded=0;orthogonalLoop=1;jettySize=auto;html=1;fontSize=12;curved=1;" edge="1" parent="1" source="q8cP-F0geSqe3ToupgCK-1" target="q8cP-F0geSqe3ToupgCK-55">
          <mxGeometry relative="1" as="geometry" />
        </mxCell>
        <mxCell id="q8cP-F0geSqe3ToupgCK-66" style="edgeStyle=orthogonalEdgeStyle;rounded=0;orthogonalLoop=1;jettySize=auto;html=1;fontSize=12;curved=1;" edge="1" parent="1" source="q8cP-F0geSqe3ToupgCK-1" target="q8cP-F0geSqe3ToupgCK-65">
          <mxGeometry relative="1" as="geometry" />
        </mxCell>
        <mxCell id="q8cP-F0geSqe3ToupgCK-1" value="柯南&lt;br style=&quot;font-size: 12px;&quot;&gt;&lt;span style=&quot;color: rgb(51, 51, 51); font-family: &amp;quot;Helvetica Neue&amp;quot;, Helvetica, Arial, &amp;quot;PingFang SC&amp;quot;, &amp;quot;Hiragino Sans GB&amp;quot;, &amp;quot;Microsoft YaHei&amp;quot;, &amp;quot;WenQuanYi Micro Hei&amp;quot;, sans-serif; font-size: 12px; text-align: start; text-indent: 28px; background-color: rgb(255, 255, 255);&quot;&gt;江户川柯南&lt;/span&gt;" style="rounded=0;whiteSpace=wrap;html=1;gradientColor=#ffffff;fontSize=12;" vertex="1" parent="1">
          <mxGeometry x="390" y="340" width="80" height="30" as="geometry" />
        </mxCell>
        <mxCell id="q8cP-F0geSqe3ToupgCK-3" style="edgeStyle=orthogonalEdgeStyle;rounded=0;orthogonalLoop=1;jettySize=auto;html=1;" edge="1" parent="1" source="q8cP-F0geSqe3ToupgCK-2" target="q8cP-F0geSqe3ToupgCK-1">
          <mxGeometry relative="1" as="geometry" />
        </mxCell>
        <mxCell id="q8cP-F0geSqe3ToupgCK-4" value="真实身份" style="edgeLabel;html=1;align=center;verticalAlign=middle;resizable=0;points=[];" vertex="1" connectable="0" parent="q8cP-F0geSqe3ToupgCK-3">
          <mxGeometry x="-0.06" y="2" relative="1" as="geometry">
            <mxPoint y="-2" as="offset" />
          </mxGeometry>
        </mxCell>
        <mxCell id="q8cP-F0geSqe3ToupgCK-2" value="工藤新一" style="rounded=0;whiteSpace=wrap;html=1;" vertex="1" parent="1">
          <mxGeometry x="570" y="340" width="70" height="30" as="geometry" />
        </mxCell>
        <mxCell id="q8cP-F0geSqe3ToupgCK-16" style="edgeStyle=orthogonalEdgeStyle;rounded=0;orthogonalLoop=1;jettySize=auto;html=1;fontSize=12;" edge="1" parent="1" source="q8cP-F0geSqe3ToupgCK-5" target="q8cP-F0geSqe3ToupgCK-1">
          <mxGeometry relative="1" as="geometry" />
        </mxCell>
        <mxCell id="q8cP-F0geSqe3ToupgCK-17" value="女友" style="edgeLabel;html=1;align=center;verticalAlign=middle;resizable=0;points=[];fontSize=12;" vertex="1" connectable="0" parent="q8cP-F0geSqe3ToupgCK-16">
          <mxGeometry x="-0.0286" y="1" relative="1" as="geometry">
            <mxPoint y="1" as="offset" />
          </mxGeometry>
        </mxCell>
        <mxCell id="q8cP-F0geSqe3ToupgCK-5" value="毛利兰" style="rounded=0;whiteSpace=wrap;html=1;gradientColor=#ffffff;fontSize=12;" vertex="1" parent="1">
          <mxGeometry x="240" y="340" width="80" height="30" as="geometry" />
        </mxCell>
        <mxCell id="q8cP-F0geSqe3ToupgCK-24" style="edgeStyle=orthogonalEdgeStyle;rounded=0;orthogonalLoop=1;jettySize=auto;html=1;fontSize=12;" edge="1" parent="1" source="q8cP-F0geSqe3ToupgCK-6" target="q8cP-F0geSqe3ToupgCK-18">
          <mxGeometry relative="1" as="geometry" />
        </mxCell>
        <mxCell id="q8cP-F0geSqe3ToupgCK-26" value="好友" style="edgeLabel;html=1;align=center;verticalAlign=middle;resizable=0;points=[];fontSize=12;" vertex="1" connectable="0" parent="q8cP-F0geSqe3ToupgCK-24">
          <mxGeometry x="-0.35" y="-2" relative="1" as="geometry">
            <mxPoint y="1" as="offset" />
          </mxGeometry>
        </mxCell>
        <mxCell id="q8cP-F0geSqe3ToupgCK-6" value="服部平次" style="rounded=0;whiteSpace=wrap;html=1;gradientColor=#ffffff;fontSize=12;" vertex="1" parent="1">
          <mxGeometry x="390" y="580" width="80" height="30" as="geometry" />
        </mxCell>
        <mxCell id="q8cP-F0geSqe3ToupgCK-22" style="edgeStyle=orthogonalEdgeStyle;rounded=0;orthogonalLoop=1;jettySize=auto;html=1;fontSize=12;" edge="1" parent="1" source="q8cP-F0geSqe3ToupgCK-7" target="q8cP-F0geSqe3ToupgCK-18">
          <mxGeometry relative="1" as="geometry" />
        </mxCell>
        <mxCell id="q8cP-F0geSqe3ToupgCK-25" value="邻居" style="edgeLabel;html=1;align=center;verticalAlign=middle;resizable=0;points=[];fontSize=12;" vertex="1" connectable="0" parent="q8cP-F0geSqe3ToupgCK-22">
          <mxGeometry x="-0.344" y="1" relative="1" as="geometry">
            <mxPoint y="1" as="offset" />
          </mxGeometry>
        </mxCell>
        <mxCell id="q8cP-F0geSqe3ToupgCK-7" value="阿笠博士" style="rounded=0;whiteSpace=wrap;html=1;gradientColor=#ffffff;fontSize=12;" vertex="1" parent="1">
          <mxGeometry x="270" y="510" width="80" height="30" as="geometry" />
        </mxCell>
        <mxCell id="q8cP-F0geSqe3ToupgCK-10" style="edgeStyle=orthogonalEdgeStyle;rounded=0;orthogonalLoop=1;jettySize=auto;html=1;fontSize=12;" edge="1" parent="1" source="q8cP-F0geSqe3ToupgCK-8" target="q8cP-F0geSqe3ToupgCK-9">
          <mxGeometry relative="1" as="geometry" />
        </mxCell>
        <mxCell id="q8cP-F0geSqe3ToupgCK-14" value="父亲" style="edgeLabel;html=1;align=center;verticalAlign=middle;resizable=0;points=[];fontSize=12;" vertex="1" connectable="0" parent="q8cP-F0geSqe3ToupgCK-10">
          <mxGeometry x="-0.704" y="-1" relative="1" as="geometry">
            <mxPoint as="offset" />
          </mxGeometry>
        </mxCell>
        <mxCell id="q8cP-F0geSqe3ToupgCK-8" value="工藤优作" style="rounded=0;whiteSpace=wrap;html=1;gradientColor=#ffffff;fontSize=12;" vertex="1" parent="1">
          <mxGeometry x="335" y="170" width="80" height="30" as="geometry" />
        </mxCell>
        <mxCell id="q8cP-F0geSqe3ToupgCK-15" style="edgeStyle=orthogonalEdgeStyle;rounded=0;orthogonalLoop=1;jettySize=auto;html=1;fontSize=12;" edge="1" parent="1" source="q8cP-F0geSqe3ToupgCK-9" target="q8cP-F0geSqe3ToupgCK-1">
          <mxGeometry relative="1" as="geometry" />
        </mxCell>
        <mxCell id="q8cP-F0geSqe3ToupgCK-9" value="家人" style="ellipse;whiteSpace=wrap;html=1;aspect=fixed;fontSize=12;gradientColor=#ffffff;" vertex="1" parent="1">
          <mxGeometry x="415" y="270" width="30" height="30" as="geometry" />
        </mxCell>
        <mxCell id="q8cP-F0geSqe3ToupgCK-12" style="edgeStyle=orthogonalEdgeStyle;rounded=0;orthogonalLoop=1;jettySize=auto;html=1;fontSize=12;" edge="1" parent="1" source="q8cP-F0geSqe3ToupgCK-11" target="q8cP-F0geSqe3ToupgCK-9">
          <mxGeometry relative="1" as="geometry" />
        </mxCell>
        <mxCell id="q8cP-F0geSqe3ToupgCK-13" value="母亲" style="edgeLabel;html=1;align=center;verticalAlign=middle;resizable=0;points=[];fontSize=12;" vertex="1" connectable="0" parent="q8cP-F0geSqe3ToupgCK-12">
          <mxGeometry x="-0.736" y="1" relative="1" as="geometry">
            <mxPoint as="offset" />
          </mxGeometry>
        </mxCell>
        <mxCell id="q8cP-F0geSqe3ToupgCK-11" value="工藤有希子" style="rounded=0;whiteSpace=wrap;html=1;gradientColor=#ffffff;fontSize=12;" vertex="1" parent="1">
          <mxGeometry x="445" y="170" width="80" height="30" as="geometry" />
        </mxCell>
        <mxCell id="q8cP-F0geSqe3ToupgCK-19" style="edgeStyle=orthogonalEdgeStyle;rounded=0;orthogonalLoop=1;jettySize=auto;html=1;fontSize=12;" edge="1" parent="1" source="q8cP-F0geSqe3ToupgCK-18" target="q8cP-F0geSqe3ToupgCK-1">
          <mxGeometry relative="1" as="geometry">
            <mxPoint x="430" y="420" as="targetPoint" />
          </mxGeometry>
        </mxCell>
        <mxCell id="q8cP-F0geSqe3ToupgCK-18" value="朋友" style="ellipse;whiteSpace=wrap;html=1;aspect=fixed;fontSize=12;gradientColor=#ffffff;" vertex="1" parent="1">
          <mxGeometry x="415" y="450" width="30" height="30" as="geometry" />
        </mxCell>
        <mxCell id="q8cP-F0geSqe3ToupgCK-40" style="edgeStyle=orthogonalEdgeStyle;rounded=0;orthogonalLoop=1;jettySize=auto;html=1;entryX=0.5;entryY=1;entryDx=0;entryDy=0;fontSize=12;" edge="1" parent="1" source="q8cP-F0geSqe3ToupgCK-23" target="q8cP-F0geSqe3ToupgCK-18">
          <mxGeometry relative="1" as="geometry" />
        </mxCell>
        <mxCell id="q8cP-F0geSqe3ToupgCK-41" value="j警察" style="edgeLabel;html=1;align=center;verticalAlign=middle;resizable=0;points=[];fontSize=12;" vertex="1" connectable="0" parent="q8cP-F0geSqe3ToupgCK-40">
          <mxGeometry x="-0.6" y="1" relative="1" as="geometry">
            <mxPoint as="offset" />
          </mxGeometry>
        </mxCell>
        <mxCell id="q8cP-F0geSqe3ToupgCK-23" value="安室透" style="rounded=0;whiteSpace=wrap;html=1;gradientColor=#ffffff;fontSize=12;" vertex="1" parent="1">
          <mxGeometry x="630" y="485" width="80" height="30" as="geometry" />
        </mxCell>
        <mxCell id="q8cP-F0geSqe3ToupgCK-28" style="edgeStyle=orthogonalEdgeStyle;rounded=0;orthogonalLoop=1;jettySize=auto;html=1;fontSize=12;" edge="1" parent="1" source="q8cP-F0geSqe3ToupgCK-27" target="q8cP-F0geSqe3ToupgCK-18">
          <mxGeometry relative="1" as="geometry" />
        </mxCell>
        <mxCell id="q8cP-F0geSqe3ToupgCK-29" value="好友" style="edgeLabel;html=1;align=center;verticalAlign=middle;resizable=0;points=[];fontSize=12;" vertex="1" connectable="0" parent="q8cP-F0geSqe3ToupgCK-28">
          <mxGeometry x="-0.4889" y="-2" relative="1" as="geometry">
            <mxPoint x="21" y="2" as="offset" />
          </mxGeometry>
        </mxCell>
        <mxCell id="q8cP-F0geSqe3ToupgCK-27" value="铃木园子" style="rounded=0;whiteSpace=wrap;html=1;gradientColor=#ffffff;fontSize=12;" vertex="1" parent="1">
          <mxGeometry x="525" y="550" width="80" height="30" as="geometry" />
        </mxCell>
        <mxCell id="q8cP-F0geSqe3ToupgCK-31" style="edgeStyle=orthogonalEdgeStyle;rounded=0;orthogonalLoop=1;jettySize=auto;html=1;fontSize=12;" edge="1" parent="1" source="q8cP-F0geSqe3ToupgCK-30">
          <mxGeometry relative="1" as="geometry">
            <mxPoint x="430" y="480" as="targetPoint" />
          </mxGeometry>
        </mxCell>
        <mxCell id="q8cP-F0geSqe3ToupgCK-32" value="警察" style="edgeLabel;html=1;align=center;verticalAlign=middle;resizable=0;points=[];fontSize=12;" vertex="1" connectable="0" parent="q8cP-F0geSqe3ToupgCK-31">
          <mxGeometry x="-0.3737" relative="1" as="geometry">
            <mxPoint as="offset" />
          </mxGeometry>
        </mxCell>
        <mxCell id="q8cP-F0geSqe3ToupgCK-30" value="高木涉" style="rounded=0;whiteSpace=wrap;html=1;gradientColor=#ffffff;fontSize=12;" vertex="1" parent="1">
          <mxGeometry x="484" y="510" width="80" height="30" as="geometry" />
        </mxCell>
        <mxCell id="q8cP-F0geSqe3ToupgCK-34" style="edgeStyle=orthogonalEdgeStyle;rounded=0;orthogonalLoop=1;jettySize=auto;html=1;fontSize=12;" edge="1" parent="1" source="q8cP-F0geSqe3ToupgCK-33" target="q8cP-F0geSqe3ToupgCK-18">
          <mxGeometry relative="1" as="geometry" />
        </mxCell>
        <mxCell id="q8cP-F0geSqe3ToupgCK-35" value="FBI" style="edgeLabel;html=1;align=center;verticalAlign=middle;resizable=0;points=[];fontSize=12;" vertex="1" connectable="0" parent="q8cP-F0geSqe3ToupgCK-34">
          <mxGeometry relative="1" as="geometry">
            <mxPoint as="offset" />
          </mxGeometry>
        </mxCell>
        <mxCell id="q8cP-F0geSqe3ToupgCK-33" value="赤井秀一" style="rounded=0;whiteSpace=wrap;html=1;gradientColor=#ffffff;fontSize=12;" vertex="1" parent="1">
          <mxGeometry x="525" y="450" width="80" height="30" as="geometry" />
        </mxCell>
        <mxCell id="q8cP-F0geSqe3ToupgCK-37" style="edgeStyle=orthogonalEdgeStyle;rounded=0;orthogonalLoop=1;jettySize=auto;html=1;fontSize=12;" edge="1" parent="1" source="q8cP-F0geSqe3ToupgCK-36" target="q8cP-F0geSqe3ToupgCK-18">
          <mxGeometry relative="1" as="geometry">
            <Array as="points">
              <mxPoint x="470" y="425" />
              <mxPoint x="470" y="465" />
            </Array>
          </mxGeometry>
        </mxCell>
        <mxCell id="q8cP-F0geSqe3ToupgCK-38" value="FBI" style="edgeLabel;html=1;align=center;verticalAlign=middle;resizable=0;points=[];fontSize=12;" vertex="1" connectable="0" parent="q8cP-F0geSqe3ToupgCK-37">
          <mxGeometry x="-0.4553" y="2" relative="1" as="geometry">
            <mxPoint x="-26" y="-7" as="offset" />
          </mxGeometry>
        </mxCell>
        <mxCell id="q8cP-F0geSqe3ToupgCK-36" value="茱蒂·斯泰琳" style="rounded=0;whiteSpace=wrap;html=1;gradientColor=#ffffff;fontSize=12;" vertex="1" parent="1">
          <mxGeometry x="640" y="410" width="80" height="30" as="geometry" />
        </mxCell>
        <mxCell id="q8cP-F0geSqe3ToupgCK-69" style="edgeStyle=orthogonalEdgeStyle;rounded=0;orthogonalLoop=1;jettySize=auto;html=1;fontSize=12;" edge="1" parent="1" source="q8cP-F0geSqe3ToupgCK-39" target="q8cP-F0geSqe3ToupgCK-18">
          <mxGeometry relative="1" as="geometry" />
        </mxCell>
        <mxCell id="q8cP-F0geSqe3ToupgCK-39" value="毛利小五郎" style="rounded=0;whiteSpace=wrap;html=1;gradientColor=#ffffff;fontSize=12;" vertex="1" parent="1">
          <mxGeometry x="285" y="420" width="80" height="30" as="geometry" />
        </mxCell>
        <mxCell id="q8cP-F0geSqe3ToupgCK-43" style="edgeStyle=orthogonalEdgeStyle;rounded=0;orthogonalLoop=1;jettySize=auto;html=1;fontSize=12;" edge="1" parent="1" source="q8cP-F0geSqe3ToupgCK-42" target="q8cP-F0geSqe3ToupgCK-18">
          <mxGeometry relative="1" as="geometry" />
        </mxCell>
        <mxCell id="q8cP-F0geSqe3ToupgCK-44" value="对手/朋友" style="edgeLabel;html=1;align=center;verticalAlign=middle;resizable=0;points=[];fontSize=12;" vertex="1" connectable="0" parent="q8cP-F0geSqe3ToupgCK-43">
          <mxGeometry x="-0.1048" relative="1" as="geometry">
            <mxPoint y="1" as="offset" />
          </mxGeometry>
        </mxCell>
        <mxCell id="q8cP-F0geSqe3ToupgCK-42" value="怪盗基德" style="rounded=0;whiteSpace=wrap;html=1;gradientColor=#ffffff;fontSize=12;" vertex="1" parent="1">
          <mxGeometry x="230" y="450" width="80" height="30" as="geometry" />
        </mxCell>
        <mxCell id="q8cP-F0geSqe3ToupgCK-46" style="edgeStyle=orthogonalEdgeStyle;rounded=0;orthogonalLoop=1;jettySize=auto;html=1;fontSize=12;" edge="1" parent="1" source="q8cP-F0geSqe3ToupgCK-45" target="q8cP-F0geSqe3ToupgCK-1">
          <mxGeometry relative="1" as="geometry" />
        </mxCell>
        <mxCell id="q8cP-F0geSqe3ToupgCK-45" value="敌人" style="ellipse;whiteSpace=wrap;html=1;aspect=fixed;fontSize=12;gradientColor=#ffffff;" vertex="1" parent="1">
          <mxGeometry x="190" y="400" width="30" height="30" as="geometry" />
        </mxCell>
        <mxCell id="q8cP-F0geSqe3ToupgCK-48" style="edgeStyle=orthogonalEdgeStyle;rounded=0;orthogonalLoop=1;jettySize=auto;html=1;fontSize=12;" edge="1" parent="1" source="q8cP-F0geSqe3ToupgCK-47" target="q8cP-F0geSqe3ToupgCK-45">
          <mxGeometry relative="1" as="geometry" />
        </mxCell>
        <mxCell id="q8cP-F0geSqe3ToupgCK-47" value="乌丸莲耶" style="rounded=0;whiteSpace=wrap;html=1;gradientColor=#ffffff;fontSize=12;" vertex="1" parent="1">
          <mxGeometry x="80" y="350" width="80" height="30" as="geometry" />
        </mxCell>
        <mxCell id="q8cP-F0geSqe3ToupgCK-50" style="edgeStyle=orthogonalEdgeStyle;rounded=0;orthogonalLoop=1;jettySize=auto;html=1;fontSize=12;" edge="1" parent="1" source="q8cP-F0geSqe3ToupgCK-49" target="q8cP-F0geSqe3ToupgCK-45">
          <mxGeometry relative="1" as="geometry" />
        </mxCell>
        <mxCell id="q8cP-F0geSqe3ToupgCK-49" value="琴酒" style="rounded=0;whiteSpace=wrap;html=1;gradientColor=#ffffff;fontSize=12;" vertex="1" parent="1">
          <mxGeometry x="80" y="400" width="80" height="30" as="geometry" />
        </mxCell>
        <mxCell id="q8cP-F0geSqe3ToupgCK-52" style="edgeStyle=orthogonalEdgeStyle;rounded=0;orthogonalLoop=1;jettySize=auto;html=1;fontSize=12;" edge="1" parent="1" source="q8cP-F0geSqe3ToupgCK-51" target="q8cP-F0geSqe3ToupgCK-45">
          <mxGeometry relative="1" as="geometry" />
        </mxCell>
        <mxCell id="q8cP-F0geSqe3ToupgCK-51" value="伏特加" style="rounded=0;whiteSpace=wrap;html=1;gradientColor=#ffffff;fontSize=12;" vertex="1" parent="1">
          <mxGeometry x="80" y="450" width="80" height="30" as="geometry" />
        </mxCell>
        <mxCell id="q8cP-F0geSqe3ToupgCK-54" style="edgeStyle=orthogonalEdgeStyle;rounded=0;orthogonalLoop=1;jettySize=auto;html=1;fontSize=12;" edge="1" parent="1" source="q8cP-F0geSqe3ToupgCK-53" target="q8cP-F0geSqe3ToupgCK-45">
          <mxGeometry relative="1" as="geometry" />
        </mxCell>
        <mxCell id="q8cP-F0geSqe3ToupgCK-53" value="贝尔摩德" style="rounded=0;whiteSpace=wrap;html=1;gradientColor=#ffffff;fontSize=12;" vertex="1" parent="1">
          <mxGeometry x="80" y="500" width="80" height="30" as="geometry" />
        </mxCell>
        <mxCell id="q8cP-F0geSqe3ToupgCK-55" value="同学" style="ellipse;whiteSpace=wrap;html=1;aspect=fixed;fontSize=12;gradientColor=#ffffff;" vertex="1" parent="1">
          <mxGeometry x="500" y="270" width="30" height="30" as="geometry" />
        </mxCell>
        <mxCell id="q8cP-F0geSqe3ToupgCK-61" style="edgeStyle=orthogonalEdgeStyle;rounded=0;orthogonalLoop=1;jettySize=auto;html=1;fontSize=12;" edge="1" parent="1" source="q8cP-F0geSqe3ToupgCK-57" target="q8cP-F0geSqe3ToupgCK-55">
          <mxGeometry relative="1" as="geometry">
            <Array as="points">
              <mxPoint x="550" y="185" />
              <mxPoint x="550" y="285" />
            </Array>
          </mxGeometry>
        </mxCell>
        <mxCell id="q8cP-F0geSqe3ToupgCK-57" value="灰原哀" style="rounded=0;whiteSpace=wrap;html=1;" vertex="1" parent="1">
          <mxGeometry x="570" y="170" width="70" height="30" as="geometry" />
        </mxCell>
        <mxCell id="q8cP-F0geSqe3ToupgCK-62" style="edgeStyle=orthogonalEdgeStyle;rounded=0;orthogonalLoop=1;jettySize=auto;html=1;fontSize=12;" edge="1" parent="1" source="q8cP-F0geSqe3ToupgCK-58" target="q8cP-F0geSqe3ToupgCK-55">
          <mxGeometry relative="1" as="geometry">
            <Array as="points">
              <mxPoint x="550" y="225" />
              <mxPoint x="550" y="285" />
            </Array>
          </mxGeometry>
        </mxCell>
        <mxCell id="q8cP-F0geSqe3ToupgCK-58" value="吉田步美" style="rounded=0;whiteSpace=wrap;html=1;" vertex="1" parent="1">
          <mxGeometry x="570" y="210" width="70" height="30" as="geometry" />
        </mxCell>
        <mxCell id="q8cP-F0geSqe3ToupgCK-63" style="edgeStyle=orthogonalEdgeStyle;rounded=0;orthogonalLoop=1;jettySize=auto;html=1;fontSize=12;" edge="1" parent="1" source="q8cP-F0geSqe3ToupgCK-59" target="q8cP-F0geSqe3ToupgCK-55">
          <mxGeometry relative="1" as="geometry" />
        </mxCell>
        <mxCell id="q8cP-F0geSqe3ToupgCK-59" value="圆谷光彦" style="rounded=0;whiteSpace=wrap;html=1;" vertex="1" parent="1">
          <mxGeometry x="570" y="250" width="70" height="30" as="geometry" />
        </mxCell>
        <mxCell id="q8cP-F0geSqe3ToupgCK-64" style="edgeStyle=orthogonalEdgeStyle;rounded=0;orthogonalLoop=1;jettySize=auto;html=1;fontSize=12;" edge="1" parent="1" source="q8cP-F0geSqe3ToupgCK-60" target="q8cP-F0geSqe3ToupgCK-55">
          <mxGeometry relative="1" as="geometry" />
        </mxCell>
        <mxCell id="q8cP-F0geSqe3ToupgCK-60" value="小岛元太" style="rounded=0;whiteSpace=wrap;html=1;" vertex="1" parent="1">
          <mxGeometry x="570" y="290" width="70" height="30" as="geometry" />
        </mxCell>
        <mxCell id="q8cP-F0geSqe3ToupgCK-65" value="老师" style="ellipse;whiteSpace=wrap;html=1;aspect=fixed;fontSize=12;gradientColor=#ffffff;" vertex="1" parent="1">
          <mxGeometry x="310" y="270" width="30" height="30" as="geometry" />
        </mxCell>
        <mxCell id="q8cP-F0geSqe3ToupgCK-70" style="edgeStyle=orthogonalEdgeStyle;rounded=0;orthogonalLoop=1;jettySize=auto;html=1;fontSize=12;" edge="1" parent="1" source="q8cP-F0geSqe3ToupgCK-67" target="q8cP-F0geSqe3ToupgCK-65">
          <mxGeometry relative="1" as="geometry" />
        </mxCell>
        <mxCell id="q8cP-F0geSqe3ToupgCK-67" value="小林橙子" style="rounded=0;whiteSpace=wrap;html=1;gradientColor=#ffffff;fontSize=12;" vertex="1" parent="1">
          <mxGeometry x="170" y="240" width="80" height="30" as="geometry" />
        </mxCell>
        <mxCell id="q8cP-F0geSqe3ToupgCK-71" style="edgeStyle=orthogonalEdgeStyle;rounded=0;orthogonalLoop=1;jettySize=auto;html=1;fontSize=12;" edge="1" parent="1" source="q8cP-F0geSqe3ToupgCK-68" target="q8cP-F0geSqe3ToupgCK-65">
          <mxGeometry relative="1" as="geometry" />
        </mxCell>
        <mxCell id="q8cP-F0geSqe3ToupgCK-68" value="若峡留美" style="rounded=0;whiteSpace=wrap;html=1;gradientColor=#ffffff;fontSize=12;" vertex="1" parent="1">
          <mxGeometry x="170" y="290" width="80" height="30" as="geometry" />
        </mxCell>
      </root>
    </mxGraphModel>
  </diagram>
</mxfile>
